<svg width="203" height="138" viewBox="0 0 203 138" fill="none" xmlns="http://www.w3.org/2000/svg">
<g clip-path="url(#clip0_2_17566)">
<path d="M50.6861 49.2374C52.0433 49.2374 52.7965 49.9093 52.7965 51.1047C52.7965 53.5238 49.8903 55.3487 44.1914 56.6219C45.3496 52.9296 48.0143 49.2444 50.6861 49.2444V49.2374ZM55.511 63.6386L55.7099 63.3981L54.438 62.2452L54.1964 62.4432C51.7236 64.544 50.0892 65.3362 48.0996 65.3362C45.1933 65.3362 43.5589 63.5113 43.5589 60.1798C43.5589 59.7412 43.6371 59.1895 43.6797 58.6731C53.0453 57.0463 57.188 54.7475 57.188 51.1754C57.2306 48.5937 54.9567 47.0093 51.3327 47.0093C44.8735 47.0093 38.8193 53.7148 38.8193 60.7739C38.8193 65.4918 41.8109 68.5475 46.4723 68.5475C49.8974 68.5475 52.7681 66.963 55.5181 63.6315L55.511 63.6386Z" fill="white"/>
<path d="M69.5023 55.8648C65.6793 54.5138 64.5211 53.6438 64.5211 52.0594C64.5211 50.2345 66.4752 49.3998 68.3867 49.3998C70.6961 49.3998 72.0959 50.2698 73.1263 52.2928L73.9648 53.9975H75.7981V48.5227L75.5991 48.4449C73.7232 47.5749 71.0585 47.0161 68.7064 47.0161C63.4481 47.0161 60.0586 49.3998 60.0586 53.085C60.0586 56.7702 63.3273 58.4395 66.8305 59.6702C70.6179 60.9364 71.8898 61.6932 71.8898 63.3979C71.8898 65.3006 69.8149 66.1777 67.7827 66.1777C64.8337 66.1777 63.3984 65.3855 62.3254 63.1644L61.5295 61.4952H59.6536V67.2104L59.8525 67.2882C62.0838 68.1228 64.7911 68.5543 67.6263 68.5543C72.9699 68.5543 76.395 66.1352 76.395 62.3652C76.4376 58.5597 73.0055 57.0885 69.5023 55.8577V55.8648Z" fill="white"/>
<path d="M88.8658 68.5545C92.6887 68.5545 96.199 66.6872 98.075 63.6386L98.2313 63.3981L96.7959 62.132L96.597 62.33C94.721 64.1125 92.8095 65.025 90.7773 65.025C86.2722 65.025 83.6856 62.0117 83.6856 56.8129C83.6856 52.4486 86.0377 49.393 89.4272 49.393C91.7366 49.393 93.2146 50.4257 94.5718 52.8872L95.5666 54.8677H97.3999V48.8342L97.2436 48.7564C95.2895 47.6034 92.703 47.0093 89.8677 47.0093C83.3303 47.0093 78.5481 51.6918 78.5481 58.1144C78.5481 64.5369 82.6126 68.5475 88.8729 68.5475L88.8658 68.5545Z" fill="white"/>
<path d="M113.58 63.2423C112.145 64.5933 110.83 65.4208 108.876 65.4208C107.121 65.4208 106.048 64.5084 106.048 63.0371C106.048 61.8842 106.566 60.7383 110.19 60.0239L113.58 59.3873V63.2352V63.2423ZM107.995 58.2414C103.369 58.9983 101.024 60.8586 101.024 63.8364C101.024 66.8143 103.376 68.5543 107.043 68.5543C109.793 68.5543 111.747 67.6418 113.58 65.5411V67.7621L114.376 68.5543H118.519V53.5589C118.519 49.1169 116.33 47.0161 111.626 47.0161C105.771 47.0161 102.26 50.3476 101.5 53.4033L101.457 53.5589L102.054 54.2733H106.559V50.5032C107.632 50.0293 108.748 49.7888 109.906 49.7888C112.578 49.7888 113.615 50.8569 113.615 53.6367V57.329L107.995 58.2414Z" fill="white"/>
<path d="M132.155 66.1355C128.765 66.1355 126.854 64.0701 126.854 60.5405V53.0428C128.566 51.2957 130.364 50.4257 132.275 50.4257C137.655 50.4257 138.252 55.9004 138.252 58.2417C138.209 63.0444 135.821 66.1355 132.155 66.1355ZM134.187 47.0164C131.281 47.0164 128.886 48.1693 126.811 50.5106V47.5327L126.015 47.0942L121.951 48.1269V76.1725H128.922V74.39H128.68C128.438 74.3122 128.005 74.192 127.607 73.8312C126.811 73.0744 126.811 72.0841 126.811 71.8861V67.5643C128.367 68.2362 130.158 68.5545 131.991 68.5545C139.879 68.5545 143.389 62.8393 143.389 57.1665C143.432 51.0976 139.722 47.0093 134.18 47.0093L134.187 47.0164Z" fill="white"/>
<path d="M157.416 49.2371C158.773 49.2371 159.526 49.9091 159.526 51.1045C159.526 53.5235 156.62 55.3485 150.921 56.6217C152.079 52.9294 154.744 49.2442 157.416 49.2442V49.2371ZM163.953 51.1823C163.953 48.6005 161.679 47.0161 158.055 47.0161C151.639 47.0161 145.542 53.7216 145.542 60.7807C145.542 65.4986 148.534 68.5543 153.195 68.5543C156.62 68.5543 159.491 67.0052 162.241 63.6384L162.44 63.3979L161.168 62.2449L160.926 62.443C158.453 64.5437 156.819 65.336 154.829 65.336C151.923 65.336 150.289 63.511 150.289 60.1795C150.289 59.741 150.367 59.1893 150.409 58.6729C159.818 57.046 163.96 54.7472 163.96 51.1752L163.953 51.1823Z" fill="white"/>
<path d="M52.4412 78.3935C51.4819 78.1177 50.9276 77.9974 50.9276 77.3608C50.9276 76.7667 51.4464 76.4059 52.1996 76.4059C52.9173 76.4059 53.5568 76.7596 53.5568 77.3962H54.4735C54.4308 76.2433 53.4786 75.5713 52.2422 75.5713C51.084 75.5713 50.0536 76.1654 50.0536 77.3962C50.0536 78.5491 51.0129 78.9028 52.1641 79.2211C52.9599 79.4192 53.7558 79.5748 53.7558 80.3741C53.7558 81.0885 53.0381 81.3643 52.3204 81.3643C51.4819 81.3643 50.7642 80.9682 50.7287 80.1336H49.812C49.8546 81.4421 50.885 82.1565 52.2849 82.1565C53.5568 82.1565 54.6369 81.5624 54.6369 80.2892C54.5943 79.0231 53.4786 78.6623 52.4483 78.3865L52.4412 78.3935Z" fill="white"/>
<path d="M59.4192 80.0624C58.9787 80.9324 58.1473 81.4134 57.3443 81.4134C56.7829 81.4134 56.2713 81.1729 56.2713 80.4585C56.2713 79.8644 56.6693 79.5885 57.5859 79.348C58.4599 79.15 58.9787 78.9944 59.3766 78.5134V80.0624H59.4192ZM60.3359 80.8971V77.6009C60.3359 76.3702 59.3411 75.6558 58.0265 75.6558C56.7119 75.6558 55.6318 76.448 55.5963 77.5585H56.5129C56.5556 76.8865 57.188 76.448 58.0265 76.448C58.865 76.448 59.4619 76.8865 59.4619 77.516C59.4619 78.2729 58.6234 78.4285 57.5504 78.6266C56.4774 78.867 55.4399 79.2631 55.4399 80.4939C55.4399 81.562 56.2358 82.1632 57.3159 82.1632C58.4741 82.1632 59.2274 81.5266 59.5898 80.8971C59.5898 81.6893 59.9451 82.0854 60.5064 82.0854C60.7054 82.0854 60.8617 82.043 60.947 82.0076V81.2507C60.8688 81.2507 60.8262 81.2932 60.748 81.2932C60.4282 81.2932 60.3501 81.1376 60.3501 80.8971H60.3359Z" fill="white"/>
<path d="M89.5052 82.1635C89.5052 80.8125 88.6312 79.5039 86.8334 78.2732L86.5563 78.0751C85.9168 77.6366 85.3625 77.1202 84.9646 76.5685C84.5667 76.0168 84.3677 75.458 84.3677 74.8992C84.3677 74.6234 84.4103 74.3404 84.524 74.0292C84.6804 73.5553 85.0428 73.1946 85.5189 72.9611C86.0376 72.7206 86.5918 72.565 87.2314 72.565C88.2688 72.565 88.9865 72.8055 89.4626 73.237C89.9387 73.6755 90.1377 74.3475 90.1377 75.2175C90.1377 75.8541 90.0169 76.6463 89.7397 77.6366L89.6971 77.8346H90.1732L91.8857 72.6358L91.7649 72.558C90.5285 71.9638 89.3347 71.6455 88.1764 71.6455C87.0182 71.6455 85.9452 71.886 85.0712 72.3599C84.1972 72.8338 83.5932 73.5129 83.2805 74.3051C83.0389 74.8992 82.9252 75.4934 82.9252 76.0097C82.9252 76.7666 83.1242 77.4385 83.5647 77.9903C83.9627 78.549 84.5596 79.1432 85.3199 79.6949L85.5615 79.893C87.1532 81.1237 87.9562 82.312 87.9562 83.3872C87.9562 83.7055 87.878 84.0238 87.7572 84.2996C87.3593 85.2899 86.4853 85.7709 85.0072 85.7709C84.0124 85.7709 83.1313 85.5304 82.4562 85.0565C81.7812 84.5826 81.4614 83.7479 81.4614 82.5596C81.4614 82.0857 81.5396 81.4915 81.703 80.7347L81.7457 80.5366H81.2269L79.7134 86.0114L79.9123 86.0538C80.1895 86.0963 80.5092 86.1316 80.8716 86.2094C82.4633 86.4499 83.6216 86.6055 84.4175 86.6055C85.6539 86.6055 86.6913 86.365 87.4872 85.8487C88.283 85.3323 88.9226 84.5826 89.3631 83.5074C89.4413 83.0335 89.5195 82.5525 89.5195 82.1564L89.5052 82.1635Z" fill="white"/>
<path d="M102.182 79.9424C101.742 81.5268 101.145 82.8778 100.427 84.0307C99.7093 85.0988 98.949 85.6576 98.1531 85.6576C97.7552 85.6576 97.3147 85.5798 96.9167 85.4171C96.5188 85.2615 96.1564 85.0634 95.8437 84.823C97.1157 81.3287 98.1531 78.7116 98.8708 77.0848C99.6312 75.4579 100.185 74.4252 100.548 74.0291C100.903 73.6754 101.266 73.4703 101.663 73.4703C102.061 73.4703 102.338 73.6684 102.537 74.0291C102.736 74.4252 102.857 74.984 102.857 75.6984C102.857 76.9292 102.616 78.358 102.182 79.9424ZM102.58 71.8859C101.663 71.8859 100.825 72.3244 100.107 73.152C99.3896 73.9442 98.7927 75.0194 98.2313 76.243C97.7126 77.4738 96.9949 79.3341 96.1209 81.7178C95.7656 82.708 95.524 83.3871 95.4032 83.6983L97.9968 74.8142C98.0395 74.4959 98.0395 74.0998 98.0395 73.5835C98.0395 72.8266 97.9613 72.3952 97.7979 72.1547C97.3573 71.5959 96.6396 71.6808 95.5666 72.473C94.9697 72.9115 94.1739 73.541 93.1719 74.3757C92.4969 74.9699 92.0563 75.3306 91.7792 75.5286L91.6584 75.6064L91.9 75.9247L96.2843 73.5057L91.2249 91.9528L88.3968 92.5894L88.2405 93.028H95.7301L95.8864 92.5894L92.9801 91.9528L94.6571 86.1244C95.4174 86.4427 96.2914 86.5983 97.2081 86.5983C98.5227 86.5983 99.8017 85.9264 101.031 84.6178C102.189 83.3517 103.184 81.7602 103.859 79.8999C104.577 78.075 104.932 76.3704 104.932 74.9416C105.01 72.9186 104.172 71.8859 102.58 71.8859Z" fill="white"/>
<path d="M111.704 81.4914C110.944 83.1182 110.39 84.1509 110.027 84.547C109.672 84.9007 109.309 85.1058 108.912 85.1058C108.514 85.1058 108.236 84.9078 108.037 84.547C107.839 84.1509 107.718 83.5921 107.718 82.8777C107.718 81.6116 107.959 80.1828 108.393 78.5913C108.826 76.9998 109.43 75.6559 110.148 74.5454C110.866 73.4773 111.626 72.9185 112.422 72.9185C112.82 72.9185 113.26 72.9963 113.658 73.159C114.056 73.3146 114.419 73.5127 114.731 73.7956C113.459 77.2474 112.422 79.8645 111.704 81.4914ZM113.779 84.9785L116.884 74.8212L118.121 71.2917L117.765 71.2139L116.053 72.4446C115.214 72.0485 114.298 71.8858 113.26 71.8858C111.946 71.8858 110.667 72.5578 109.473 73.8664C108.315 75.1749 107.32 76.7593 106.645 78.5842C105.927 80.4092 105.572 82.0785 105.572 83.5426C105.572 85.608 106.368 86.6337 108.002 86.6337C108.919 86.6337 109.757 86.1951 110.475 85.3675C111.193 84.5753 111.789 83.5002 112.351 82.2765C112.869 81.0458 113.587 79.1855 114.461 76.8018C114.816 75.8115 115.058 75.1325 115.179 74.8566H115.222L112.472 83.5073C112.429 83.8256 112.429 84.2641 112.429 84.738C112.429 85.4524 112.507 85.9263 112.671 86.1668C113.111 86.7256 113.786 86.6407 114.902 85.8485C115.499 85.41 116.295 84.7805 117.296 83.9458C117.971 83.3516 118.412 82.9909 118.689 82.7929L118.81 82.6726L118.568 82.3543L113.786 84.9714L113.779 84.9785Z" fill="white"/>
<path d="M3.19765 38.9313C8.31386 22.3515 23.8544 10.5603 45.044 5.00071C66.2266 -0.551831 92.9517 0.148424 120.181 8.47369L120.601 7.12269C93.1577 -1.26623 66.1626 -2.00186 44.6816 3.63556C23.2148 9.2659 7.15561 21.2976 1.84043 38.5211L3.19765 38.9384V38.9313ZM82.8187 129.526C55.5891 121.201 33.0778 106.842 18.6884 90.4037C4.28484 73.9512 -1.92567 55.5111 3.19765 38.9313L1.84043 38.514C-3.47475 55.7304 3.03421 74.6727 17.6154 91.3303C32.2108 107.995 54.9638 122.481 82.3995 130.87L82.8187 129.519V129.526ZM199.802 99.0685C194.686 115.648 179.146 127.439 157.949 132.999C136.766 138.559 110.041 137.851 82.8116 129.526L82.3924 130.877C109.835 139.266 136.83 140.002 158.304 134.364C179.771 128.734 195.837 116.702 201.152 99.4787L199.795 99.0614L199.802 99.0685ZM120.181 8.47369C147.411 16.799 169.922 31.1578 184.312 47.5961C198.715 64.0415 204.919 82.4816 199.802 99.0614L201.16 99.4787C206.475 82.2623 199.966 63.32 185.385 46.6624C170.789 29.9977 148.036 15.5116 120.601 7.12269L120.181 8.47369Z" fill="white"/>
<path d="M144.824 82.3402V75.8752L145.137 76.2076H143.275V75.5781H145.542V82.3402H144.824Z" fill="white"/>
<path d="M148.498 82.3331L151.163 75.8823L151.355 76.1935H147.539L147.866 75.854V77.4596H147.24V75.5781H151.767V76.0733L149.187 82.3402L148.498 82.3331Z" fill="white"/>
</g>
<defs>
<clipPath id="clip0_2_17566">
<rect width="203" height="138" fill="white"/>
</clipPath>
</defs>
</svg>
