<svg width="19" height="19" viewBox="0 0 19 19" fill="none" xmlns="http://www.w3.org/2000/svg">
<path d="M9.5976 0.19533C12.7856 0.207728 15.4246 2.85203 15.391 6.00819C15.3899 7.15719 15.0481 8.28006 14.4087 9.23471C13.7692 10.1894 12.861 10.9329 11.7989 11.3712C10.7368 11.8095 9.56855 11.923 8.44196 11.6971C7.31537 11.4713 6.28109 10.9164 5.46999 10.1025C4.65889 9.2887 4.10742 8.25256 3.88536 7.12522C3.66331 5.99788 3.78065 4.83 4.22254 3.76937C4.66443 2.70874 5.41101 1.80302 6.3678 1.16682C7.32459 0.530616 8.4486 0.192527 9.5976 0.19533ZM9.50019 10.893C10.4719 10.9066 11.4258 10.6315 12.2411 10.1026C13.0564 9.57369 13.6963 8.8147 14.0799 7.92179C14.4635 7.02888 14.5735 6.04221 14.3959 5.08675C14.2183 4.13129 13.7612 3.25002 13.0824 2.55457C12.4036 1.85912 11.5336 1.38076 10.5828 1.1801C9.63188 0.97943 8.64284 1.06548 7.7409 1.42734C6.83896 1.7892 6.0647 2.4106 5.51619 3.21283C4.96768 4.01506 4.66959 4.96204 4.65967 5.93381C4.65015 7.2315 5.15333 8.48047 6.05978 9.40914C6.96622 10.3378 8.20265 10.8711 9.50019 10.893Z" fill="#1E1E1E"/>
<path d="M9.61212 12.8009C10.9387 12.8009 12.2688 12.7743 13.5919 12.8009C16.1618 12.8646 18.1968 14.6535 18.5351 17.1207C18.5783 17.3809 18.5735 17.6468 18.5209 17.9053C18.4866 17.9807 18.4339 18.0463 18.3677 18.0961C18.3015 18.1459 18.2239 18.1783 18.1419 18.1904C18.0126 18.1904 17.8727 18.024 17.7505 17.9177C17.7151 17.8858 17.7239 17.8061 17.7097 17.7494C16.8667 14.4569 15.8749 13.6847 12.4672 13.6758C10.317 13.6758 8.16569 13.6758 6.01317 13.6758C3.41315 13.6758 1.9006 14.9811 1.44896 17.5369C1.40645 17.7778 1.12484 17.9761 0.954813 18.1957C0.830833 17.9318 0.600586 17.6644 0.600586 17.4058C0.690914 14.9138 2.90306 12.8575 5.54382 12.8009C6.90228 12.7761 8.25897 12.8009 9.61212 12.8009Z" fill="#1E1E1E"/>
</svg>
